<svg width="1125" height="1151" viewBox="0 0 1125 1151" xmlns="http://www.w3.org/2000/svg">
<path  d="M59.541 320.243C95.1426 246.054 145.444 183.35 208.838 131.211C294.741 60.2372 393.277 17.5154 503.757 4.42317C633.53 -10.9659 755.494 13.6107 868.271 81.1388C896.293 97.906 922.477 116.97 947.513 137.642C953.714 142.695 953.025 145.681 947.743 150.734C896.522 201.725 845.302 252.715 794.541 304.165C788.569 310.137 785.354 309.678 778.922 304.854C630.085 190.24 413.03 221.248 302.091 372.842C282.568 399.486 266.719 428.197 255.694 459.434C254.775 462.19 252.938 464.717 251.56 467.473C221.93 444.964 192.071 422.454 162.671 399.715C128.218 373.301 93.7645 346.887 59.541 320.243Z" fill="#252734"/>
<path d="M251.56 682.92C261.436 704.74 269.705 727.479 282.108 747.922C334.247 833.365 408.666 888.261 506.743 907.784C595.172 925.47 680.157 913.526 759.399 869.196C762.155 867.818 764.911 866.44 767.438 865.062C768.816 866.44 769.965 868.048 771.343 869.196C830.602 915.134 890.091 961.071 949.35 1007.01C920.869 1035.26 888.483 1058 854.03 1077.75C754.116 1134.72 645.933 1157.68 532.008 1148.96C390.061 1137.93 267.638 1081.89 166.576 980.825C122.246 936.495 85.7256 886.423 59.3115 829.231C83.8881 810.397 108.465 791.792 133.041 772.957C172.547 742.868 212.054 713.009 251.56 682.92Z" fill="#252734"/>
<path d="M949.58 1007.01C890.321 961.072 830.832 915.134 771.572 869.197C770.194 868.048 768.816 866.441 767.668 865.062C788.11 849.214 809.011 833.825 825.779 813.612C853.8 780.078 872.405 742.18 882.052 699.687C883.2 694.405 882.282 692.567 876.999 692.797C874.243 693.027 871.716 692.797 868.96 692.797C775.247 692.797 681.305 692.567 587.593 693.027C577.257 693.027 574.96 690.27 575.189 680.394C575.649 613.784 575.649 547.175 575.189 480.566C575.189 472.067 577.486 469.77 585.985 469.77C757.791 470 929.597 470 1101.63 469.77C1108.98 469.77 1111.97 471.608 1113.81 479.417C1127.82 542.581 1126.9 605.975 1118.4 669.828C1111.51 720.819 1099.11 770.202 1080.04 817.977C1051.79 888.491 1010.22 950.047 955.552 1002.87C953.485 1004.48 951.418 1005.63 949.58 1007.01Z" fill="#252734"/>
<path d="M251.56 682.92C212.054 713.009 172.547 742.869 133.041 772.958C108.465 791.562 83.888 810.397 59.3114 829.231C40.2474 793.859 27.8442 756.42 17.738 717.833C-1.55576 643.184 -4.5417 567.387 6.02392 491.361C14.2927 431.642 31.5192 374.22 59.3114 320.473C93.7645 346.887 127.988 373.531 162.441 399.945C192.071 422.684 221.7 445.194 251.33 467.703C246.277 492.28 239.157 516.397 236.86 541.662C232.725 587.6 237.09 632.389 250.182 676.489C251.1 678.327 251.33 680.623 251.56 682.92Z" fill="#252734"/>
</svg>
